<svg width="16" height="16" viewBox="0 0 16 16" fill="none" xmlns="http://www.w3.org/2000/svg">
<path d="M0.463912 15.5432C-0.154637 14.9342 -0.154637 13.9467 0.463912 13.3377L13.1571 0.839671C13.7756 0.23063 14.7785 0.23063 15.397 0.839671C16.0156 1.44871 16.0156 2.43616 15.397 3.0452L2.70388 15.5432C2.08533 16.1523 1.08246 16.1523 0.463912 15.5432Z" fill="#D9D9D9"/>
<path d="M0.602979 0.456781C1.22153 -0.15226 2.2244 -0.15226 2.84295 0.456781L15.5361 12.9548C16.1546 13.5638 16.1546 14.5513 15.5361 15.1603C14.9175 15.7694 13.9147 15.7694 13.2961 15.1603L0.602979 2.66231C-0.0155706 2.05327 -0.0155704 1.06582 0.602979 0.456781Z" fill="#D9D9D9"/>
</svg>
