<svg width="76" height="20" viewBox="0 0 76 20" fill="none" xmlns="http://www.w3.org/2000/svg">
<path fill-rule="evenodd" clip-rule="evenodd" d="M60.2861 0C59.1496 -8.37989e-08 58.0597 0.45134 57.2559 1.25478C56.4522 2.05822 56.0004 3.14797 56 4.28442V15.7139C56 16.8507 56.4516 17.9408 57.2554 18.7446C58.0592 19.5484 59.1493 20 60.2861 20H71.7156C72.852 19.9996 73.9418 19.5478 74.7452 18.7441C75.5487 17.9403 76 16.8504 76 15.7139V4.28442C75.9996 3.14826 75.548 2.05875 74.7446 1.25536C73.9412 0.451969 72.8517 0.000436232 71.7156 0H60.2861ZM72.9484 4.29101C72.9484 4.61841 72.8183 4.9324 72.5868 5.1639C72.3553 5.39541 72.0413 5.52547 71.7139 5.52547C71.3865 5.52547 71.0725 5.39541 70.841 5.1639C70.6095 4.9324 70.4795 4.61841 70.4795 4.29101C70.4795 3.9636 70.6095 3.64961 70.841 3.41811C71.0725 3.1866 71.3865 3.05654 71.7139 3.05654C72.0413 3.05654 72.3553 3.1866 72.5868 3.41811C72.8183 3.64961 72.9484 3.9636 72.9484 4.29101ZM66.0025 6.57559C65.0945 6.57559 64.2237 6.93629 63.5816 7.57834C62.9396 8.22038 62.5789 9.09119 62.5789 9.99918C62.5789 10.9072 62.9396 11.778 63.5816 12.42C64.2237 13.0621 65.0945 13.4228 66.0025 13.4228C66.9105 13.4228 67.7813 13.0621 68.4233 12.42C69.0654 11.778 69.4261 10.9072 69.4261 9.99918C69.4261 9.09119 69.0654 8.22038 68.4233 7.57834C67.7813 6.93629 66.9105 6.57559 66.0025 6.57559ZM60.9313 9.99918C60.9313 8.65465 61.4654 7.36519 62.4161 6.41447C63.3668 5.46375 64.6563 4.92964 66.0008 4.92964C67.3453 4.92964 68.6348 5.46375 69.5855 6.41447C70.5363 7.36519 71.0704 8.65465 71.0704 9.99918C71.0704 11.3437 70.5363 12.6332 69.5855 13.5839C68.6348 14.5346 67.3453 15.0687 66.0008 15.0687C64.6563 15.0687 63.3668 14.5346 62.4161 13.5839C61.4654 12.6332 60.9313 11.3437 60.9313 9.99918Z" fill="#FF4343"/>
<path d="M18.8965 0H1.10351C0.494057 0 0 0.494057 0 1.10351V18.8965C0 19.5059 0.494057 20 1.10351 20H18.8965C19.5059 20 20 19.5059 20 18.8965V1.10351C20 0.494057 19.5059 0 18.8965 0Z" fill="#3D5A98"/>
<path d="M13.2928 19.1418V11.397H15.8918L16.2805 8.37883H13.2928V6.45234C13.2928 5.57866 13.5361 4.98212 14.7883 4.98212H16.387V2.27828C15.6128 2.19775 14.8349 2.15939 14.0566 2.16337C11.7549 2.16337 10.1698 3.56599 10.1698 6.15323V8.37883H7.57074V11.397H10.1698V19.1418H13.2928Z" fill="white"/>
<path d="M43.3125 0H32.6875C30.0987 0 28 2.09867 28 4.6875V15.3125C28 17.9013 30.0987 20 32.6875 20H43.3125C45.9013 20 48 17.9013 48 15.3125V4.6875C48 2.09867 45.9013 0 43.3125 0Z" fill="#1D9BF0"/>
<path d="M43.6228 7.84461C43.6314 7.96859 43.6314 8.09257 43.6314 8.21773C43.6314 12.03 40.7292 16.4267 35.4224 16.4267V16.4244C33.8547 16.4266 32.3195 15.9776 31 15.131C31.228 15.1584 31.457 15.1721 31.6867 15.1727C32.9861 15.1737 34.2481 14.7379 35.2699 13.9352C34.6679 13.9239 34.0844 13.7246 33.6012 13.3654C33.1179 13.0062 32.7589 12.5049 32.5745 11.9317C33.0068 12.0151 33.4524 11.9981 33.877 11.882C32.5311 11.6101 31.5627 10.4275 31.5627 9.05406V9.0175C31.964 9.24098 32.413 9.36482 32.8721 9.37859C31.6045 8.53132 31.2137 6.84484 31.9791 5.52625C32.7035 6.41757 33.6072 7.14656 34.6316 7.66586C35.656 8.18515 36.7782 8.48314 37.9253 8.54047C37.8109 8.04815 37.8278 7.53444 37.9743 7.0507C38.1208 6.56697 38.3917 6.13017 38.7599 5.78398C39.922 4.69164 41.7495 4.74765 42.8419 5.90906C43.488 5.7815 44.1076 5.54464 44.674 5.20867C44.4586 5.87669 44.0079 6.44372 43.4057 6.80429C43.9776 6.73691 44.5362 6.58382 45.0625 6.35015C44.6753 6.92999 44.1878 7.43603 43.6228 7.84461Z" fill="white"/>
</svg>
